<?xml version="1.0" encoding="utf-8"?>
<!-- Generator: Adobe Illustrator 23.0.6, SVG Export Plug-In . SVG Version: 6.00 Build 0)  -->
<svg version="1.1" id="Layer_1" xmlns="http://www.w3.org/2000/svg" xmlns:xlink="http://www.w3.org/1999/xlink" x="0px" y="0px"
	 viewBox="0 0 228.7 39.1" style="enable-background:new 0 0 228.7 39.1;" xml:space="preserve">
<style type="text/css">
	.st0{enable-background:new    ;}
	.st1{fill:#FED136;}
</style>
<g>
	<g class="st0">
		<path class="st1" d="M19.9,27.7c-0.4,1.4-1.7,4.2-2.3,5.3c-1.1,0.3-3.4,0.8-6.1,0.8c-6.2,0-10.7-3.5-10.7-10.6
			c0-8.5,6.8-14.8,15.2-14.8c3,0,5.4,0.7,6.2,0.9c-0.3,1.2-0.6,3.6-0.9,5.6l-0.6,0.1c0-4.8-2.5-5.8-5.4-5.8c-6,0-10.2,6.9-10.2,14.4
			c0,5.2,2.1,9.3,6.6,9.3c3.2,0,5.7-1.9,7.7-5.5L19.9,27.7z"/>
		<path class="st1" d="M22.6,20.7c2-2.4,3.9-3.6,5.1-3.6c1.2,0,1.3,1.6,0.5,5.2l-0.3,1.2c1.6-3.2,4-6.4,5.6-6.4
			c0.9,0,1.6,0.7,1.6,1.7c0,0.9-0.9,2.2-1.5,2.5c-0.3,0.2-0.5,0.3-0.6,0c-0.5-0.5-1.3-1.1-1.7-1.1c-0.9,0-2.2,2.5-2.8,3.7
			c-1.1,2.3-1.8,5.7-2.5,9.1c-1.1,0.1-2.4,0.4-3.2,0.7l-0.2-0.2c0.9-3.8,2-8.8,2.5-11.3c0.4-2,0.4-2.5,0-2.5c-0.5,0-1.5,0.8-2.2,1.5
			L22.6,20.7z"/>
		<path class="st1" d="M50.4,30c-2,2.6-3.9,3.7-5.1,3.7c-1.1,0-1.4-1.2-0.8-4.3l0.4-1.9C43.4,29.8,42,31,40.9,32
			c-1.4,1.2-2.4,1.7-3.5,1.7c-1.4,0-2.3-1.7-2.3-4.2c0-3.5,1.7-7.3,4.1-9.5c1.7-1.5,4.3-2.9,7-2.9c1.5,0,3.3,0.5,4,0.6
			c-0.7,2.6-1.7,7.3-2.6,12c-0.2,1-0.1,1.4,0.3,1.4c0.4,0,1.1-0.4,2.2-1.6L50.4,30z M43.6,28.1c1-1.3,1.5-2.6,1.9-4
			c0.4-1.5,0.9-4.1,1.1-5.2c-0.5-0.3-1.4-0.5-2.6-0.5c-3.4,0-5.2,6.2-5.2,10.4c0,1.8,0.5,2.4,1.1,2.4C40.8,31.2,42,30.3,43.6,28.1z"
			/>
		<path class="st1" d="M62.5,19c0,0.6-0.7,1.6-1.3,1.8c-0.2,0.1-0.4,0-0.7-0.4c-0.7-0.8-1.6-1.8-2.8-1.8c-1,0-1.8,0.9-1.8,1.9
			c0,1.2,0.9,1.9,2.5,3.2c2.6,2.1,3,3,3,4.3c0,2.9-4.5,5.7-6.7,5.7c-1.7,0-3.4-1.1-3.4-2.6c0-0.6,0.8-1.8,1.5-1.8
			c0.2,0,0.3,0.1,0.5,0.2c1.3,1.7,2.5,2.5,3.7,2.5c1.2,0,2.1-0.9,2.1-1.9c0-0.9-0.5-1.6-2.1-3c-1.4-1.2-3.2-2.4-3.2-4.4
			c0-1.1,0.4-2.4,2.2-3.9c1.1-0.9,2.6-1.7,3.8-1.7C61.2,17.1,62.5,17.9,62.5,19z"/>
		<path class="st1" d="M66.7,7.9c1.6-0.2,3.5-0.6,4.7-1c0.6-0.2,1-0.3,1.2-0.3c0.3,0,0.2,0.4,0.1,1.2c-1.1,5.2-2.3,10.8-3.4,15.9
			c2.5-4,6-6.5,8.2-6.5c1.4,0,2.4,0.7,1.3,5.4c-0.6,2.5-1.2,5.1-1.7,7.3c-0.2,1-0.1,1.3,0.2,1.3c0.3,0,1.1-0.4,2.2-1.5l0.3,0.4
			c-2,2.6-4.2,3.7-5.3,3.7c-1.1,0-1.4-0.9-0.8-3.6c0.6-2.8,1.3-5.3,1.9-8c0.4-2,0.3-2.8-0.6-2.8c-1.1,0-3.1,1.2-5.2,4.9
			c-0.7,1.2-1,2.6-1.3,3.7c-0.4,1.6-0.8,3.7-1,5.1c-1.2,0.1-2.3,0.4-3.4,0.7L64,33.4c1.5-7,3.2-15.1,4.7-22.7
			c0.4-1.9,0.2-2.1-1.4-2.3c-0.3,0-0.4-0.1-0.7-0.1L66.7,7.9z"/>
		<path class="st1" d="M86.1,33.7c-1.8,0-4-1-4-5.3c0-3.4,1.4-7.1,4-9.2c1.4-1.2,3.6-2.1,5.1-2.1c1.9,0,2.8,1.3,2.8,2.7
			c0,3.3-5,4.9-8.4,5.7c-0.1,0.7-0.1,1.2-0.1,1.5c0,2.3,0.7,4.5,2.8,4.5c1.4,0,3-0.8,4.7-2.6l0.3,0.5C90.8,32.7,88.1,33.7,86.1,33.7
			z M85.8,24.7c4.2-0.7,5.3-2.8,5.3-4.6c0-1-0.6-1.8-1.6-1.8C88.2,18.3,86.5,19.7,85.8,24.7z"/>
		<path class="st1" d="M105.6,19c0,0.6-0.7,1.6-1.3,1.8c-0.2,0.1-0.4,0-0.7-0.4c-0.7-0.8-1.6-1.8-2.8-1.8c-1,0-1.8,0.9-1.8,1.9
			c0,1.2,0.9,1.9,2.5,3.2c2.6,2.1,3,3,3,4.3c0,2.9-4.5,5.7-6.7,5.7c-1.7,0-3.4-1.1-3.4-2.6c0-0.6,0.8-1.8,1.5-1.8
			c0.2,0,0.3,0.1,0.5,0.2c1.3,1.7,2.5,2.5,3.7,2.5c1.2,0,2.1-0.9,2.1-1.9c0-0.9-0.5-1.6-2.1-3c-1.4-1.2-3.2-2.4-3.2-4.4
			c0-1.1,0.4-2.4,2.2-3.9c1.1-0.9,2.6-1.7,3.8-1.7C104.3,17.1,105.6,17.9,105.6,19z"/>
		<path class="st1" d="M134,27.7c-0.4,1.4-1.7,4.2-2.3,5.3c-1.1,0.3-3.4,0.8-6.1,0.8c-6.2,0-10.7-3.5-10.7-10.6
			c0-8.5,6.8-14.8,15.2-14.8c3,0,5.4,0.7,6.2,0.9c-0.3,1.2-0.6,3.6-0.9,5.6l-0.6,0.1c0-4.8-2.5-5.8-5.4-5.8c-6,0-10.2,6.9-10.2,14.4
			c0,5.2,2.1,9.3,6.6,9.3c3.2,0,5.7-1.9,7.7-5.5L134,27.7z"/>
		<path class="st1" d="M136.7,20.7c2-2.4,3.9-3.6,5.1-3.6c1.2,0,1.3,1.6,0.5,5.2l-0.3,1.2c1.6-3.2,4-6.4,5.7-6.4
			c0.9,0,1.6,0.7,1.6,1.7c0,0.9-0.9,2.2-1.5,2.5c-0.3,0.2-0.5,0.3-0.6,0c-0.5-0.5-1.3-1.1-1.7-1.1c-0.9,0-2.2,2.5-2.8,3.7
			c-1.1,2.3-1.8,5.7-2.5,9.1c-1.1,0.1-2.4,0.4-3.2,0.7l-0.2-0.2c0.9-3.8,2-8.8,2.5-11.3c0.4-2,0.4-2.5,0-2.5c-0.5,0-1.5,0.8-2.2,1.5
			L136.7,20.7z"/>
		<path class="st1" d="M164.5,30c-2,2.6-3.9,3.7-5.1,3.7c-1.1,0-1.4-1.2-0.8-4.3l0.4-1.9c-1.5,2.3-2.9,3.6-3.9,4.6
			c-1.4,1.2-2.4,1.7-3.5,1.7c-1.4,0-2.3-1.7-2.3-4.2c0-3.5,1.7-7.3,4.1-9.5c1.7-1.5,4.3-2.9,7-2.9c1.5,0,3.3,0.5,4,0.6
			c-0.7,2.6-1.7,7.3-2.6,12c-0.2,1-0.1,1.4,0.3,1.4c0.4,0,1.1-0.4,2.2-1.6L164.5,30z M157.7,28.1c1-1.3,1.5-2.6,1.9-4
			c0.4-1.5,0.9-4.1,1.1-5.2c-0.5-0.3-1.4-0.5-2.6-0.5c-3.4,0-5.2,6.2-5.2,10.4c0,1.8,0.5,2.4,1.1,2.4
			C154.9,31.2,156.1,30.3,157.7,28.1z"/>
		<path class="st1" d="M177.8,29.6c-2.2,2.7-4.8,4.1-7,4.1c-2.4,0-4-1.8-4-5.3c0-3,1.2-6.5,3.6-8.7c1.5-1.4,3.8-2.7,5.7-2.7
			c1.5,0,2.6,0.7,2.6,1.6c0,0.6-0.4,1.4-1.2,1.8c-0.5,0.3-0.8,0.1-1.1-0.3c-0.8-1.2-1.5-1.8-2.5-1.8c-1.9,0-3.6,3.8-3.6,9
			c0,2.9,1.1,4.1,2.6,4.1c1.7,0,3.2-1.2,4.5-2.5L177.8,29.6z"/>
		<path class="st1" d="M195.3,30.1c-1.8,2.8-3.6,3.6-4.4,3.6c-0.9,0-1.6-0.4-2.6-2.6c-0.8-1.8-1.6-4-2.4-6c-0.8,1-1.7,2.2-1.9,3
			c-0.5,2.4-0.7,3.5-1,4.9c-1.1,0.1-2.4,0.5-3.3,0.7l-0.3-0.2c1.6-7.3,3.2-15.1,4.7-22.8c0.3-1.7,0.2-2.1-2.1-2.2l0.1-0.5
			c3.3-0.3,5.3-1.3,5.9-1.3c0.3,0,0.3,0.3,0.1,0.9c-1.3,5.7-2.5,12.2-3.8,18.2c1.8-2.3,7.1-8.7,9.5-8.7c1.1,0,1.6,0.6,1.6,1.2
			c0,0.6-0.5,1.6-1.1,2.1c-0.3,0.3-0.6,0.3-0.8,0.2c-0.6-0.4-1.2-0.9-1.9-0.9c-1,0-2.8,1.8-3.9,3c0.5,1.4,1.7,4,2.7,6.1
			c1.1,2.1,1.6,2.5,2.1,2.5c0.4,0,1-0.3,2.1-1.6L195.3,30.1z"/>
		<path class="st1" d="M200.6,33.7c-1.8,0-4-1-4-5.3c0-3.4,1.4-7.1,4-9.2c1.4-1.2,3.6-2.1,5.1-2.1c1.9,0,2.8,1.3,2.8,2.7
			c0,3.3-5,4.9-8.4,5.7c-0.1,0.7-0.1,1.2-0.1,1.5c0,2.3,0.7,4.5,2.8,4.5c1.4,0,3-0.8,4.7-2.6l0.3,0.5
			C205.3,32.7,202.6,33.7,200.6,33.7z M200.3,24.7c4.2-0.7,5.3-2.8,5.3-4.6c0-1-0.6-1.8-1.6-1.8C202.7,18.3,201,19.7,200.3,24.7z"/>
		<path class="st1" d="M225.8,29.9c-2,2.6-4.2,3.8-5.3,3.8c-1.2,0-1.5-0.9-0.9-4.1l0.5-2c-2.5,3.6-5.5,6.1-7.5,6.1
			c-1.4,0-2.5-1.4-2.5-4.4c0-3.5,1.5-7.5,4-9.6c1.9-1.7,4.8-2.6,6.1-2.6c0.7,0,1.4,0.1,2.1,0.3l1.3-6.8c0.3-1.6,0.1-1.7-1.4-2
			c-0.3,0-0.6,0-0.9-0.1l0.1-0.5c1.7-0.2,3.8-0.6,4.9-1c0.6-0.2,1-0.3,1.2-0.3c0.3,0,0.3,0.2,0.1,1c-1.6,7-3.8,17.5-4.6,22
			c-0.2,1-0.1,1.4,0.3,1.4c0.4,0,1.2-0.5,2.3-1.6L225.8,29.9z M219.6,27c0.7-1.1,1-2.1,1.2-3.3l1-4.5c-0.6-0.7-2-1-3-1
			c-3.4,0-5.1,6.9-5.1,10.5c0,1.7,0.4,2.6,1.2,2.6C216.1,31.3,217.8,29.9,219.6,27z"/>
	</g>
</g>
</svg>
